<?xml version="1.0" encoding="iso-8859-1"?>
<!-- Generator: Adobe Illustrator 16.0.0, SVG Export Plug-In . SVG Version: 6.00 Build 0)  -->
<!DOCTYPE svg PUBLIC "-//W3C//DTD SVG 1.1//EN" "http://www.w3.org/Graphics/SVG/1.1/DTD/svg11.dtd">
<svg xmlns="http://www.w3.org/2000/svg" xmlns:xlink="http://www.w3.org/1999/xlink" version="1.1" id="Capa_1" x="0px" y="0px" width="512px" height="512px" viewBox="0 0 30.549 30.549" style="enable-background:new 0 0 30.549 30.549;" xml:space="preserve">
	<defs>
        <linearGradient id="half_grad_female" x1="0%" y1="0%" x2="0%" y2="100%">
            <stop offset="100%" stop-color="grey" id="red_scale"/>
            <stop stop-color="#D80027" opacity="0.5"/>
        </linearGradient>
    </defs>
<g>
	<path d="M15.366,0c-5.351,0-5.205,4.925-5.205,4.925l0.392,6.391l1.284,5.023l1.05,0.097l-1.033,6.26h2.37v6.791   c-0.848,0.014-1.373,0.146-1.373,0.527c0,0.402,0.827,0.534,0.827,0.534h0.545h1.31h0.063c0,0,0-0.284,0-0.502   c0-0.08-0.02-0.155-0.063-0.224v-7.125h0.605l0.576,3.525l-0.618,3.504c-0.106,0.09-0.148,0.2-0.148,0.319c0,0.22,0,0.502,0,0.502   h0.06v0.001h1.318v-0.001h0.538c0,0,0.828-0.131,0.828-0.534c0-0.365-0.49-0.5-1.278-0.522l0.511-3.271l-0.486-3.525h2.109   l-1.36-5.993l0.623,0.034l1.28-6.142c0.096-0.695,0.219-1.749,0.267-2.839C20.438,5.898,20.718,0,15.366,0z M16.593,8.839v1.502   h0.008l0.54,0.256l-0.483,0.87h1.192l-0.148,3.05c-0.062-0.027-0.127-0.045-0.193-0.045c-0.363,0-0.659,0.412-0.659,0.919   c0,0.508,0.296,0.919,0.659,0.919c0.036,0,0.07-0.006,0.106-0.016l-0.095,1.895h-3.869l-0.22-1.988   c0.319-0.065,0.563-0.444,0.563-0.906c0-0.508-0.295-0.92-0.658-0.92c-0.036,0-0.069,0.007-0.104,0.015l-0.321-2.923h1.383   l-0.508-0.963l0.424-0.106V8.789c-1.733-0.545-2.998-2.144-2.998-4.056c0-0.145,0.028-0.281,0.043-0.422   c1.181-0.081,5.157-0.447,5.261-1.74c0.379,0.702,2.388,2.464,3.2,2.598C19.533,6.942,18.271,8.385,16.593,8.839z" fill="url(#half_grad_female)"/>
</g>
<g>
</g>
<g>
</g>
<g>
</g>
<g>
</g>
<g>
</g>
<g>
</g>
<g>
</g>
<g>
</g>
<g>
</g>
<g>
</g>
<g>
</g>
<g>
</g>
<g>
</g>
<g>
</g>
<g>
</g>
</svg>
