<?xml version="1.0" encoding="iso-8859-1"?>
<!-- Generator: Adobe Illustrator 16.0.0, SVG Export Plug-In . SVG Version: 6.00 Build 0)  -->
<!DOCTYPE svg PUBLIC "-//W3C//DTD SVG 1.1//EN" "http://www.w3.org/Graphics/SVG/1.1/DTD/svg11.dtd">
<svg xmlns="http://www.w3.org/2000/svg" xmlns:xlink="http://www.w3.org/1999/xlink" version="1.1" id="Capa_1" x="0px" y="0px" width="512px" height="512px" viewBox="0 0 31.456 31.455" style="enable-background:new 0 0 31.456 31.455;" xml:space="preserve">
	<defs>
        <linearGradient id="half_grad_male" x1="0%" y1="0%" x2="0%" y2="100%">
            <stop offset="100%" stop-color="grey" id="red_scale"/>
            <stop stop-color="#D80027" opacity="0.5"/>
        </linearGradient>
    </defs>
<g>
	<g fill="url(#half_grad_male)">
		<path d="M21.362,29.864c-1.116-0.242-1.724-0.373-1.724-0.373h-0.297l0.811-4.29l-0.811-3.355v-0.723v-0.936h0.588l-0.291-3.77    l1.082-5.913h-3.022c0,0-0.563,1.733-2.119,1.825c-1.553,0.09-2.142-1.825-2.142-1.825h-0.902h-1.016h-0.535l0.814,5.263    l-0.305,4.419h0.619v0.937v0.724v7.646h-0.294c0,0-0.602,0.11-1.723,0.373c-1.12,0.264,0,1.589,0,1.589h5.093v-1.771v-0.191    v-7.646h1.082l0.825,3.288l-0.825,4.358v0.191v1.771h5.092C21.362,31.453,22.477,30.105,21.362,29.864z M18.411,13.049    l-0.302,3.462c-0.051-0.015-0.102-0.022-0.155-0.022c-0.399,0-0.726,0.424-0.726,0.947c0,0.519,0.321,0.94,0.719,0.945    l-0.074,0.848l-3.933,0.106l-0.093-0.89c0.34-0.078,0.6-0.463,0.6-0.932c0-0.522-0.324-0.947-0.725-0.947    c-0.025,0-0.049,0.007-0.072,0.01l-0.372-3.528L18.411,13.049L18.411,13.049zM11.717,4.562c-0.051,0.169-0.103,0.338-0.133,0.516c-0.035,0.221-0.056,0.45-0.056,0.68c0,2.28,1.847,4.126,4.126,4.126    c2.277,0,4.125-1.846,4.125-4.126c0-0.456-0.092-0.886-0.227-1.296l0.836-1.156l-1.5-0.529l0.294-1.534L17.35,1.767L16.506,0    l-1.565,1.632l-1.214-1.405l-0.57,1.856L11.21,1.446l0.733,1.639l-1.416,0.398L11.717,4.562z" />
	</g>
</g>
<g>
</g>
<g>
</g>
<g>
</g>
<g>
</g>
<g>
</g>
<g>
</g>
<g>
</g>
<g>
</g>
<g>
</g>
<g>
</g>
<g>
</g>
<g>
</g>
<g>
</g>
<g>
</g>
<g>
</g>
</svg>
